<?xml version="1.0" encoding="UTF-8"?>
<svg id="Layer_1" xmlns="http://www.w3.org/2000/svg" version="1.1" viewBox="0 0 636.2 591.6">
  <!-- Generator: Adobe Illustrator 29.2.1, SVG Export Plug-In . SVG Version: 2.1.0 Build 116)  -->
  <defs>
    <style>
      .st0 {
        fill: #15181f;
      }

      .st1 {
        stroke: #15181f;
        stroke-miterlimit: 10;
        stroke-width: 16px;
      }

      .st1, .st2 {
        fill: #fff;
      }

      .st3 {
        fill: #ffd43b;
      }
    </style>
  </defs>
  <g id="Background">
    <path class="st3" d="M161,569.6"/>
    <ellipse class="st3" cx="318.1" cy="295.8" rx="318.1" ry="295.8"/>
  </g>
  <g id="Sceen">
    <g>
      <path class="st2" d="M75.2,495.9c-2.1,0-4.2-.9-5.7-2.4s-2.3-3.6-2.3-5.7v-10.4c.2-4.4,3.8-7.9,8.1-7.9h486.2c4.4,0,8,3.6,8,8v10.3c0,2.1-.8,4.2-2.3,5.7s-3.5,2.3-5.7,2.3H75.2Z"/>
      <path class="st0" d="M75.4,477.5h486.2v10.3H75.3v-10.4M75.4,461.5c-8.8,0-15.9,7-16,15.8v10.4c0,4.3,1.5,8.4,4.5,11.4s7.1,4.8,11.4,4.8h486.4c4.2,0,8.3-1.7,11.3-4.7s4.7-7.1,4.7-11.3v-10.3c0-8.8-7.2-16-16-16H75.4Z"/>
    </g>
    <g>
      <path class="st2" d="M44.7,468c-4.4,0-8-3.6-8-8v-15.6c0-2.1.8-4.2,2.3-5.7s3.5-2.3,5.7-2.3h547.1c2.1,0,4.2.9,5.7,2.4s2.3,3.6,2.3,5.7v15.8c-.2,4.4-3.8,7.9-8.1,7.9s-547-.2-547-.2h0Z"/>
      <path class="st0" d="M44.7,444.4h547.1v15.8c-182.3,0-364.7-.1-547-.2v-15.6M44.7,428.4c-4.2,0-8.3,1.7-11.3,4.7s-4.7,7.1-4.7,11.3v15.6c0,8.8,7.2,16,16,16h273.5c0,.1,273.5.2,273.5.2h0c8.8,0,15.9-7.1,16-15.8v-15.8c0-4.3-1.5-8.4-4.5-11.4s-7.1-4.7-11.4-4.7H44.6h0Z"/>
    </g>
    <g>
      <path class="st2" d="M44.4,138.6c-4.4,0-8-3.6-8-8v-15.6c0-2.1.8-4.2,2.3-5.7s3.5-2.3,5.7-2.3h547.1c2.1,0,4.2.9,5.7,2.4s2.3,3.6,2.3,5.7v15.8c-.2,4.4-3.8,7.9-8.1,7.9s-547-.2-547-.2h0Z"/>
      <path class="st0" d="M44.4,115h547.1v15.8c-182.3,0-364.7,0-547-.2v-15.6M44.4,99c-4.2,0-8.3,1.7-11.3,4.7s-4.7,7.1-4.7,11.3v15.6c0,8.8,7.2,16,16,16l547,.2h0c8.8,0,15.9-7.1,16-15.8v-15.8c0-4.3-1.5-8.4-4.5-11.4s-7.1-4.7-11.4-4.7H44.4Z"/>
    </g>
    <rect class="st1" x="65.3" y="148.2" width="506.8" height="278.9"/>
  </g>
  <g id="Decoration">
    <ellipse class="st0" cx="405.4" cy="166.4" rx="5.9" ry="6.1"/>
    <ellipse class="st0" cx="545.8" cy="277.6" rx="5.9" ry="6.1"/>
    <ellipse class="st0" cx="146.9" cy="166.4" rx="5.9" ry="6.1"/>
    <ellipse class="st0" cx="90.6" cy="343.2" rx="5.9" ry="6.1"/>
    <ellipse class="st0" cx="90.6" cy="323.3" rx="5.9" ry="6.1"/>
    <rect class="st0" x="367.4" y="161" width="18.1" height="10.8" rx="5.2" ry="5.2"/>
    <rect class="st0" x="429.8" y="161" width="49.7" height="10.8" rx="5.2" ry="5.2"/>
    <rect class="st0" x="540.5" y="290.1" width="10.5" height="51.4" rx="5.2" ry="5.2"/>
    <rect class="st0" x="156.9" y="405.1" width="49.7" height="10.8" rx="5.2" ry="5.2"/>
    <rect class="st0" x="85.6" y="222.2" width="10.5" height="22" rx="5.2" ry="5.2"/>
    <rect class="st0" x="85.6" y="253.7" width="10.5" height="22" rx="5.2" ry="5.2"/>
    <path class="st0" d="M499.2,161.4h46.1c3.1,0,5.7,2.5,5.7,5.7v5.1h-51.8c-2.9,0-5.2-2.3-5.2-5.2v-.3c0-2.9,2.3-5.2,5.2-5.2h0Z"/>
    <path class="st0" d="M540.6,219.5v-58.2h4.8c3.1,0,5.7,2.5,5.7,5.7v52.5c0,2.9-2.3,5.2-5.2,5.2h0c-2.9,0-5.2-2.3-5.2-5.2h0Z"/>
    <path class="st0" d="M550.7,369.9v40.6c0,3.1-2.5,5.7-5.7,5.7h-4.8v-46.3c0-2.9,2.3-5.2,5.2-5.2h0c2.9,0,5.2,2.3,5.2,5.2h0Z"/>
    <path class="st0" d="M519.7,405.5h31v5.1c0,3.1-2.5,5.7-5.7,5.7h-25.3c-2.9,0-5.2-2.3-5.2-5.2v-.3c0-2.9,2.3-5.2,5.2-5.2h0Z"/>
    <path class="st0" d="M144.5,415.9h-53.2c-3.1,0-5.7-2.5-5.7-5.7v-5.1h58.9c2.9,0,5.2,2.3,5.2,5.2v.3c0,2.9-2.3,5.2-5.2,5.2h0Z"/>
    <path class="st0" d="M96,362.2v53.3h-4.8c-3.1,0-5.7-2.5-5.7-5.7v-47.6c0-2.9,2.3-5.2,5.2-5.2h0c2.9,0,5.2,2.3,5.2,5.2h.1Z"/>
    <path class="st0" d="M85.6,207v-40.6c0-3.1,2.5-5.7,5.7-5.7h4.8v46.3c0,2.9-2.3,5.2-5.2,5.2h0c-2.9,0-5.2-2.3-5.2-5.2h-.1Z"/>
    <path class="st0" d="M116.7,171.4h-31v-5.1c0-3.1,2.5-5.7,5.7-5.7h25.3c2.9,0,5.2,2.3,5.2,5.2v.3c0,2.9-2.3,5.2-5.2,5.2h0Z"/>
  </g>
  <g id="demotiome">
    <path class="st0" d="M178.9,383.5l40.2-192h51.9c9.1,0,16.9,1.5,24,4.2,7.1,2.7,12.7,7.1,17.1,13s7.1,13.2,8.3,22,.7,19.3-2,31.6l-12.5,59.8c-2.9,14.2-7.8,26-14.2,35-6.4,9.1-14.7,15.9-25,20.1-10,4.4-22.3,6.4-36.5,6.4h-51.9.5ZM231.6,348l-2-2.4h10.3c3.4,0,6.6-.7,9.1-2s4.7-3.7,6.6-7.3,3.4-8.6,4.9-15.2l14.2-66.6c1.2-5.4,1.7-9.8,1.5-13.5,0-3.7-1.2-6.6-3.2-8.6s-5.1-2.9-9.3-2.9h-10.8l4.2-3.4-26,122h.5Z"/>
    <path class="st0" d="M356.2,383.8l32.3-153.6h-27.7l8.1-38.5h101.4l-8.1,38.5h-27.9l-32.3,153.6h-45.8Z"/>
  </g>
</svg>