<?xml version="1.0" encoding="UTF-8"?>
<svg id="Layer_1" xmlns="http://www.w3.org/2000/svg" version="1.1" viewBox="0 0 636.2 591.6">
  <!-- Generator: Adobe Illustrator 29.2.1, SVG Export Plug-In . SVG Version: 2.1.0 Build 116)  -->
  <defs>
    <style>
      .st0 {
        fill: #15181f;
      }

      .st1 {
        stroke: #15181f;
        stroke-miterlimit: 10;
        stroke-width: 16px;
      }

      .st1, .st2 {
        fill: #fff;
      }

      .st3 {
        fill: #ffd43b;
      }
    </style>
  </defs>
  <g id="Background">
    <path class="st3" d="M161,569.6"/>
    <ellipse class="st3" cx="318.1" cy="295.8" rx="318.1" ry="295.8"/>
  </g>
  <g id="Sceen">
    <g>
      <path class="st2" d="M42.8,476.2c-4.4,0-8-3.6-8-8v-15.6c0-2.1.8-4.2,2.3-5.7s3.5-2.3,5.7-2.3h547.1c2.1,0,4.2.9,5.7,2.4s2.3,3.6,2.3,5.7v15.8c-.2,4.4-3.8,7.9-8.1,7.9s-547-.2-547-.2h0Z"/>
      <path class="st0" d="M42.8,452.6h547.1v15.8c-182.3,0-364.7-.1-547-.2v-15.6M42.8,436.6c-4.2,0-8.3,1.7-11.3,4.7s-4.7,7.1-4.7,11.3v15.6c0,8.8,7.2,16,16,16h273.5c0,.1,273.5.2,273.5.2h0c8.8,0,15.9-7.1,16-15.8v-15.8c0-4.3-1.5-8.4-4.5-11.4s-7.1-4.7-11.4-4.7H42.7h.1Z"/>
    </g>
    <g>
      <path class="st2" d="M42.5,146.8c-4.4,0-8-3.6-8-8v-15.6c0-2.1.8-4.2,2.3-5.7s3.5-2.3,5.7-2.3h547.1c2.1,0,4.2.9,5.7,2.4s2.3,3.6,2.3,5.7v15.8c-.2,4.4-3.8,7.9-8.1,7.9s-547-.2-547-.2h0Z"/>
      <path class="st0" d="M42.5,123.2h547.1v15.8c-182.3,0-364.7,0-547-.2v-15.6M42.5,107.2c-4.2,0-8.3,1.7-11.3,4.7s-4.7,7.1-4.7,11.3v15.6c0,8.8,7.2,16,16,16l547,.2h0c8.8,0,15.9-7.1,16-15.8v-15.8c0-4.3-1.5-8.4-4.5-11.4s-7.1-4.7-11.4-4.7H42.5Z"/>
    </g>
    <rect class="st1" x="63.4" y="156.4" width="506.8" height="278.9"/>
  </g>
  <g id="Decoration">
    <ellipse class="st0" cx="403.5" cy="174.6" rx="5.9" ry="6.1"/>
    <ellipse class="st0" cx="543.9" cy="285.8" rx="5.9" ry="6.1"/>
    <ellipse class="st0" cx="145" cy="174.6" rx="5.9" ry="6.1"/>
    <ellipse class="st0" cx="88.7" cy="351.4" rx="5.9" ry="6.1"/>
    <ellipse class="st0" cx="88.7" cy="331.5" rx="5.9" ry="6.1"/>
    <rect class="st0" x="365.5" y="169.2" width="18.1" height="10.8" rx="5.2" ry="5.2"/>
    <rect class="st0" x="427.9" y="169.2" width="49.7" height="10.8" rx="5.2" ry="5.2"/>
    <rect class="st0" x="538.6" y="298.3" width="10.5" height="51.4" rx="5.2" ry="5.2"/>
    <rect class="st0" x="155" y="413.3" width="49.7" height="10.8" rx="5.2" ry="5.2"/>
    <rect class="st0" x="83.7" y="230.4" width="10.5" height="22" rx="5.2" ry="5.2"/>
    <rect class="st0" x="83.7" y="261.9" width="10.5" height="22" rx="5.2" ry="5.2"/>
    <path class="st0" d="M497.3,169.6h46.1c3.1,0,5.7,2.5,5.7,5.7v5.1h-51.8c-2.9,0-5.2-2.3-5.2-5.2v-.3c0-2.9,2.3-5.2,5.2-5.2h0Z"/>
    <path class="st0" d="M538.7,227.7v-58.2h4.8c3.1,0,5.7,2.5,5.7,5.7v52.5c0,2.9-2.3,5.2-5.2,5.2h0c-2.9,0-5.2-2.3-5.2-5.2h0Z"/>
    <path class="st0" d="M548.8,378.1v40.6c0,3.1-2.5,5.7-5.7,5.7h-4.8v-46.3c0-2.9,2.3-5.2,5.2-5.2h0c2.9,0,5.2,2.3,5.2,5.2h0Z"/>
    <path class="st0" d="M517.8,413.7h31v5.1c0,3.1-2.5,5.7-5.7,5.7h-25.3c-2.9,0-5.2-2.3-5.2-5.2v-.3c0-2.9,2.3-5.2,5.2-5.2h0Z"/>
    <path class="st0" d="M142.6,424.1h-53.2c-3.1,0-5.7-2.5-5.7-5.7v-5.1h58.9c2.9,0,5.2,2.3,5.2,5.2v.3c0,2.9-2.3,5.2-5.2,5.2h0Z"/>
    <path class="st0" d="M94.1,370.4v53.3h-4.8c-3.1,0-5.7-2.5-5.7-5.7v-47.6c0-2.9,2.3-5.2,5.2-5.2h0c2.9,0,5.2,2.3,5.2,5.2h.1Z"/>
    <path class="st0" d="M83.7,215.2v-40.6c0-3.1,2.5-5.7,5.7-5.7h4.8v46.3c0,2.9-2.3,5.2-5.2,5.2h0c-2.9,0-5.2-2.3-5.2-5.2h-.1Z"/>
    <path class="st0" d="M114.8,179.6h-31v-5.1c0-3.1,2.5-5.7,5.7-5.7h25.3c2.9,0,5.2,2.3,5.2,5.2v.3c0,2.9-2.3,5.2-5.2,5.2h0Z"/>
  </g>
  <g id="demotiome">
    <path class="st0" d="M177,391.7l40.2-192h51.9c9.1,0,16.9,1.5,24,4.2s12.7,7.1,17.1,13,7.1,13.2,8.3,22,.7,19.3-2,31.6l-12.5,59.8c-2.9,14.2-7.8,26-14.2,35-6.4,9.1-14.7,15.9-25,20.1-10,4.4-22.3,6.4-36.5,6.4h-51.9.6ZM229.7,356.2l-2-2.4h10.3c3.4,0,6.6-.7,9.1-2s4.7-3.7,6.6-7.3,3.4-8.6,4.9-15.2l14.2-66.6c1.2-5.4,1.7-9.8,1.5-13.5,0-3.7-1.2-6.6-3.2-8.6s-5.1-2.9-9.3-2.9h-10.8l4.2-3.4-26,122h.5,0Z"/>
    <path class="st0" d="M354.3,392l32.3-153.6h-27.7l8.1-38.5h101.4l-8.1,38.5h-27.9l-32.3,153.6h-45.8Z"/>
  </g>
</svg>